<?xml version="1.0" standalone="no"?><!DOCTYPE svg PUBLIC "-//W3C//DTD SVG 1.1//EN" "http://www.w3.org/Graphics/SVG/1.1/DTD/svg11.dtd"><svg t="1614910672096" class="icon" viewBox="0 0 1024 1024" version="1.1" xmlns="http://www.w3.org/2000/svg" p-id="1201" xmlns:xlink="http://www.w3.org/1999/xlink" width="200" height="200"><defs><style type="text/css"></style></defs><path d="M669.889151 372.16064a6.931492 6.931492 0 0 1-6.884971-6.001091l-1.069962-7.489733a172.124296 172.124296 0 0 0-34.56442-81.037979A96.296566 96.296566 0 1 1 800.145375 218.923496a95.319644 95.319644 0 0 1-19.398873 57.96402 175.613302 175.613302 0 0 0-35.169181 81.828821l-1.256042 7.489732a7.024532 7.024532 0 0 1-6.838451 5.954571z m67.500636-6.978012z m-33.680537-228.599673h-5.34981a82.340542 82.340542 0 0 0-59.964383 132.396147 185.754679 185.754679 0 0 1 37.216064 87.597311l0.232601 1.488642h55.312375l0.2326-1.442122a188.871525 188.871525 0 0 1 37.867345-88.388152 82.340542 82.340542 0 0 0-65.686353-131.884427zM706.081774 109.554788a6.978012 6.978012 0 0 1-6.978012-6.978012v-25.027803a6.978012 6.978012 0 1 1 13.956024 0v25.027803a6.978012 6.978012 0 0 1-6.978012 6.978012zM788.840996 144.770489a6.978012 6.978012 0 0 1-4.931129-11.909141l17.724151-17.72415a6.978012 6.978012 0 0 1 9.862257 9.862257l-17.724151 17.72415a6.931492 6.931492 0 0 1-4.931128 2.046884zM603.365437 327.082682a7.117572 7.117572 0 0 1-4.931128-2.046883 7.024532 7.024532 0 0 1 0-9.862257l17.72415-17.724151a7.024532 7.024532 0 0 1 9.862257 0 6.931492 6.931492 0 0 1 0 9.862257l-17.72415 17.724151a6.931492 6.931492 0 0 1-4.931129 2.046883zM847.502817 228.180992h-25.027803a6.978012 6.978012 0 0 1 0-13.956024h25.027803a6.978012 6.978012 0 0 1 0 13.956024zM587.45557 225.948028h-25.027803a6.978012 6.978012 0 0 1 0-13.956024h25.027803a6.978012 6.978012 0 0 1 0 13.956024zM804.797383 328.664365a7.024532 7.024532 0 0 1-4.931128-2.046884l-17.724151-17.72415a6.978012 6.978012 0 0 1 9.862257-9.862257l17.724151 17.72415a6.931492 6.931492 0 0 1 0 9.862257 7.024532 7.024532 0 0 1-4.931129 2.046884zM622.67127 143.188806a6.931492 6.931492 0 0 1-4.931128-2.046883L600.109031 123.417772a6.978012 6.978012 0 1 1 9.862257-9.862257l17.724151 17.724151a7.024532 7.024532 0 0 1 0 9.862257 7.117572 7.117572 0 0 1-5.024169 2.046883z" fill="#363636" p-id="1202"></path><path d="M714.222788 372.16064h-20.143195a6.931492 6.931492 0 0 1-6.931492-6.373251l-11.86262-139.095039a7.024532 7.024532 0 0 1 6.978012-7.582773h43.775395a7.024532 7.024532 0 0 1 6.978012 7.582773L721.061239 365.833909a6.931492 6.931492 0 0 1-6.838451 6.326731z m-13.723424-13.956024h7.303653l10.653098-125.139015h-28.609849zM671.424314 391.745593a6.978012 6.978012 0 0 1-6.978012-6.978012v-19.538433a6.978012 6.978012 0 0 1 13.956024 0v19.538433a6.978012 6.978012 0 0 1-6.978012 6.978012z" fill="#363636" p-id="1203"></path><path d="M703.75577 391.745593a6.978012 6.978012 0 0 1-6.978012-6.978012v-19.538433a6.978012 6.978012 0 0 1 13.956024 0v19.538433a6.978012 6.978012 0 0 1-6.978012 6.978012zM736.040705 391.745593a6.978012 6.978012 0 0 1-6.978012-6.978012v-19.538433a6.978012 6.978012 0 0 1 13.956024 0v19.538433a6.978012 6.978012 0 0 1-6.978012 6.978012zM850.759222 748.694167H192.12793a6.978012 6.978012 0 0 1-6.978012-6.978012v-78.479375a6.978012 6.978012 0 0 1 6.978012-6.978012h658.631292a6.978012 6.978012 0 0 1 6.978012 6.978012v78.479375a6.978012 6.978012 0 0 1-6.978012 6.978012z m-651.65328-13.956024h644.675268v-64.523351H199.105942z" fill="#363636" p-id="1204"></path><path d="M249.95239 746.647283a6.978012 6.978012 0 0 1-6.978012-6.978012v-30.703252a6.978012 6.978012 0 0 1 13.956024 0v30.703252a6.978012 6.978012 0 0 1-6.978012 6.978012zM310.288933 746.647283a6.978012 6.978012 0 0 1-6.978012-6.978012v-30.703252a6.978012 6.978012 0 0 1 13.956024 0v30.703252a6.978012 6.978012 0 0 1-6.978012 6.978012zM370.625477 746.647283a6.978012 6.978012 0 0 1-6.978012-6.978012v-30.703252a6.978012 6.978012 0 0 1 13.956024 0v30.703252a6.978012 6.978012 0 0 1-6.978012 6.978012zM430.962021 746.647283a6.978012 6.978012 0 0 1-6.978012-6.978012v-30.703252a6.978012 6.978012 0 0 1 13.956024 0v30.703252a6.978012 6.978012 0 0 1-6.978012 6.978012zM491.298564 746.647283a6.978012 6.978012 0 0 1-6.978012-6.978012v-30.703252a6.978012 6.978012 0 0 1 13.956024 0v30.703252a6.978012 6.978012 0 0 1-6.978012 6.978012zM551.635108 746.647283a6.978012 6.978012 0 0 1-6.978012-6.978012v-30.703252a6.978012 6.978012 0 0 1 13.956024 0v30.703252a6.978012 6.978012 0 0 1-6.978012 6.978012zM611.971652 746.647283a6.978012 6.978012 0 0 1-6.978012-6.978012v-30.703252a6.978012 6.978012 0 0 1 13.956024 0v30.703252a6.978012 6.978012 0 0 1-6.978012 6.978012zM672.308196 746.647283A6.978012 6.978012 0 0 1 665.237143 739.669271v-30.703252a6.978012 6.978012 0 0 1 13.956024 0v30.703252a6.978012 6.978012 0 0 1-6.884971 6.978012zM732.644739 746.647283A6.978012 6.978012 0 0 1 725.713247 739.669271v-30.703252a6.978012 6.978012 0 1 1 13.956024 0v30.703252a6.978012 6.978012 0 0 1-7.024532 6.978012zM792.981283 746.647283A6.978012 6.978012 0 0 1 786.189351 739.669271v-30.703252a6.978012 6.978012 0 0 1 13.956024 0v30.703252a6.978012 6.978012 0 0 1-7.164092 6.978012zM527.677267 374.021443H218.132655a6.978012 6.978012 0 0 1-6.978012-6.978012V316.662184a52.10249 52.10249 0 0 1 52.009449-52.009449h219.528258a52.055969 52.055969 0 0 1 51.962929 52.009449V367.043431a6.978012 6.978012 0 0 1-6.978012 6.978012z m-302.38052-13.956024h295.588588v-43.403235a38.053425 38.053425 0 0 0-38.006905-38.053425H263.164092a38.099945 38.099945 0 0 0-38.053425 38.053425z" fill="#363636" p-id="1205"></path><path d="M482.69235 670.214792H263.164092a52.10249 52.10249 0 0 1-52.009449-52.009449v-251.208432a6.978012 6.978012 0 0 1 6.978012-6.978012h309.544612a6.978012 6.978012 0 0 1 6.978012 6.978012v251.208432a52.055969 52.055969 0 0 1-51.962929 52.009449zM225.110667 374.021443v244.1839a38.099945 38.099945 0 0 0 38.053425 38.053425h219.528258a38.053425 38.053425 0 0 0 38.006905-38.053425V374.021443zM706.174814 552.425949h-125.604216a6.978012 6.978012 0 0 1-6.978012-6.978012V516.372888a6.978012 6.978012 0 0 1 6.978012-6.978012h103.972379V458.036707a7.024532 7.024532 0 0 1 2.605124-5.442849A7.164092 7.164092 0 0 1 693.149191 451.244776a51.172088 51.172088 0 0 0 25.539524-0.930402 6.978012 6.978012 0 0 1 8.931856 6.698891v74.013448a21.492277 21.492277 0 0 1-21.445757 21.399236z m-118.440124-13.956024h118.440124a7.536253 7.536253 0 0 0 7.536253-7.489732v-65.128112a65.128112 65.128112 0 0 1-15.025986 0.511721V516.372888a6.978012 6.978012 0 0 1-6.978012 6.978012h-103.972379z" fill="#363636" p-id="1206"></path><path d="M704.17445 466.363802a64.337271 64.337271 0 0 1-13.956024-1.535163 66.291114 66.291114 0 0 1-52.149009-64.523351v-35.07614a6.978012 6.978012 0 0 1 6.978012-6.978012h118.114483a6.978012 6.978012 0 0 1 6.978012 6.978012v35.07614a66.244594 66.244594 0 0 1-66.011994 66.058514zM652.071961 372.16064v27.912048A52.33509 52.33509 0 0 0 693.149191 451.244776a51.172088 51.172088 0 0 0 25.539524-0.930402 52.33509 52.33509 0 0 0 37.495185-49.962566V372.16064zM545.773578 587.40905h-18.096311a7.024532 7.024532 0 0 1-6.978012-6.978012V467.061603a6.978012 6.978012 0 0 1 6.978012-6.978012h18.096311a41.868072 41.868072 0 0 1 41.868072 41.868072v43.449754a41.868072 41.868072 0 0 1-41.868072 42.007633z m-11.118299-13.956024h11.118299a27.912048 27.912048 0 0 0 27.912048-27.912048v-43.449755a27.912048 27.912048 0 0 0-27.912048-27.912048h-11.118299zM305.404325 519.861894a60.476104 60.476104 0 1 1 60.476104-60.476104 60.476104 60.476104 0 0 1-60.476104 60.476104z m0-106.996184a46.52008 46.52008 0 1 0 46.52008 46.52008 46.52008 46.52008 0 0 0-46.52008-46.5666z" fill="#363636" p-id="1207"></path><path d="M305.404325 493.112848a33.773578 33.773578 0 0 1-33.727058-33.727058 6.978012 6.978012 0 0 1 13.956024 0 19.771034 19.771034 0 1 0 19.771034-19.817554 6.978012 6.978012 0 0 1 0-13.956024 33.773578 33.773578 0 0 1 0 67.500636zM271.398146 670.214792a6.978012 6.978012 0 0 1-6.978012-6.978012v-23.26004a6.978012 6.978012 0 0 1 13.956024 0v23.26004a6.978012 6.978012 0 0 1-6.978012 6.978012zM312.382337 670.214792a6.978012 6.978012 0 0 1-6.978012-6.978012v-23.26004a6.978012 6.978012 0 0 1 13.956024 0v23.26004a6.978012 6.978012 0 0 1-6.978012 6.978012zM353.552608 670.214792a6.978012 6.978012 0 0 1-6.978012-6.978012v-23.26004a6.978012 6.978012 0 0 1 13.956024 0v23.26004a6.978012 6.978012 0 0 1-6.978012 6.978012zM394.397238 670.214792a6.978012 6.978012 0 0 1-6.978012-6.978012v-23.26004a6.978012 6.978012 0 0 1 13.956024 0v23.26004a6.978012 6.978012 0 0 1-6.978012 6.978012zM435.427948 670.214792a6.978012 6.978012 0 0 1-6.978012-6.978012v-23.26004a6.978012 6.978012 0 0 1 13.956024 0v23.26004a6.978012 6.978012 0 0 1-6.978012 6.978012zM476.458659 670.214792a6.978012 6.978012 0 0 1-6.978012-6.978012v-23.26004a6.978012 6.978012 0 0 1 13.956024 0v23.26004a6.978012 6.978012 0 0 1-6.978012 6.978012zM268.606942 301.775759a6.978012 6.978012 0 0 1-6.978012-6.978012v-23.26004a6.978012 6.978012 0 0 1 13.956024 0v23.26004a6.978012 6.978012 0 0 1-6.978012 6.978012zM309.591132 301.775759a6.978012 6.978012 0 0 1-6.978012-6.978012v-23.26004a6.978012 6.978012 0 0 1 13.956024 0v23.26004a6.978012 6.978012 0 0 1-6.978012 6.978012zM350.621843 301.775759a6.978012 6.978012 0 0 1-6.978012-6.978012v-23.26004a6.978012 6.978012 0 1 1 13.956024 0v23.26004a6.978012 6.978012 0 0 1-6.978012 6.978012zM391.606033 301.775759a6.978012 6.978012 0 0 1-6.978012-6.978012v-23.26004a6.978012 6.978012 0 1 1 13.956024 0v23.26004a6.978012 6.978012 0 0 1-6.978012 6.978012zM432.636744 301.775759a6.978012 6.978012 0 0 1-6.978012-6.978012v-23.26004a6.978012 6.978012 0 1 1 13.956024 0v23.26004a6.978012 6.978012 0 0 1-6.978012 6.978012zM473.620934 301.775759a6.978012 6.978012 0 0 1-6.978012-6.978012v-23.26004a6.978012 6.978012 0 1 1 13.956024 0v23.26004a6.978012 6.978012 0 0 1-6.978012 6.978012zM486.693077 614.716337H394.862439a6.978012 6.978012 0 0 1-6.978012-6.978012V404.352535a6.978012 6.978012 0 0 1 6.978012-6.978012h91.830638a6.978012 6.978012 0 0 1 6.978011 6.978012v203.38579a6.978012 6.978012 0 0 1-6.978011 6.978012z m-84.852626-13.956024h77.874614V411.330547H401.840451z" fill="#363636" p-id="1208"></path><path d="M422.169726 437.753952a6.978012 6.978012 0 0 1-6.838452-8.373614 4.652008 4.652008 0 0 1 0.37216-1.302562 7.675813 7.675813 0 0 1 0.651282-1.209522 8.931855 8.931855 0 0 1 0.837361-1.023442 6.373251 6.373251 0 0 1 1.069962-0.883882l1.209522-0.651281a7.396693 7.396693 0 0 1 5.349809 0l1.209522 0.651281a6.373251 6.373251 0 0 1 1.069962 0.883882 7.117572 7.117572 0 0 1 2.000364 4.931128 7.210612 7.210612 0 0 1-2.000364 4.931129 8.047974 8.047974 0 0 1-2.279484 1.488642 7.071052 7.071052 0 0 1-1.302562 0.418681zM415.145194 531.119753a7.024532 7.024532 0 0 1 7.024532-6.978012 6.978012 6.978012 0 0 1 6.931492 6.978012 6.978012 6.978012 0 0 1-6.931492 6.978012 7.024532 7.024532 0 0 1-7.024532-6.978012z m0-50.148646a7.071052 7.071052 0 0 1 7.024532-7.024532 6.978012 6.978012 0 0 1 6.931492 7.024532 6.978012 6.978012 0 0 1-6.931492 6.978012 7.024532 7.024532 0 0 1-7.024532-6.978012zM422.169726 588.292931a7.536253 7.536253 0 0 1-2.698165-0.511721 8.187534 8.187534 0 0 1-2.279484-1.535162 6.838452 6.838452 0 0 1-2.000363-4.931129 6.652371 6.652371 0 0 1 0-1.349082 4.186807 4.186807 0 0 1 0.37216-1.302562 6.04761 6.04761 0 0 1 0.651281-1.209523 9.304016 9.304016 0 0 1 0.837362-1.069961 7.164092 7.164092 0 0 1 6.326731-1.907324 7.071052 7.071052 0 0 1 1.302562 0.418681 5.86153 5.86153 0 0 1 1.209522 0.604761 9.815737 9.815737 0 0 1 1.069962 0.883882 7.675813 7.675813 0 0 1 1.907323 3.582046 13.165183 13.165183 0 0 1 0 1.349082 6.791932 6.791932 0 0 1-0.511721 2.698165 6.466291 6.466291 0 0 1-1.488642 2.232964 6.838452 6.838452 0 0 1-4.698528 2.046883zM456.548065 437.753952a6.559331 6.559331 0 0 1-2.698165-0.558241 8.047974 8.047974 0 0 1-2.279484-1.488642 7.071052 7.071052 0 0 1-2.046883-4.931129 6.978012 6.978012 0 0 1 2.046883-4.931128 6.373251 6.373251 0 0 1 1.069962-0.883882l1.209522-0.651281a7.396693 7.396693 0 0 1 5.349809 0l1.209522 0.651281a6.373251 6.373251 0 0 1 1.069962 0.883882 7.117572 7.117572 0 0 1 2.000364 4.931128 7.210612 7.210612 0 0 1-2.000364 4.931129 7.117572 7.117572 0 0 1-4.931128 2.046883zM449.523533 531.119753a7.024532 7.024532 0 0 1 6.978012-6.978012 7.024532 7.024532 0 0 1 7.024532 6.978012 7.024532 7.024532 0 0 1-7.024532 6.978012 6.978012 6.978012 0 0 1-6.978012-6.978012z m0-50.148646a7.024532 7.024532 0 0 1 6.978012-7.024532 7.071052 7.071052 0 0 1 7.024532 7.024532 7.024532 7.024532 0 0 1-7.024532 6.978012 7.024532 7.024532 0 0 1-6.978012-6.978012zM456.501545 588.292931a6.838452 6.838452 0 0 1-4.931129-2.046883 6.466291 6.466291 0 0 1-1.488642-2.232964 6.838452 6.838452 0 0 1-0.558241-2.698165 6.652371 6.652371 0 0 1 0-1.349082 7.861894 7.861894 0 0 1 1.907323-3.582046 7.210612 7.210612 0 0 1 9.862257 0 6.373251 6.373251 0 0 1 0.883881 1.069961 7.489733 7.489733 0 0 1 1.069962 2.512085 13.165183 13.165183 0 0 1 0 1.349082 6.791932 6.791932 0 0 1-2.046883 4.931129 6.698892 6.698892 0 0 1-4.698528 2.046883zM362.856624 614.716337H262.09413a6.978012 6.978012 0 0 1-6.978012-6.978012v-56.242777a6.978012 6.978012 0 0 1 6.978012-6.978012H362.856624a6.978012 6.978012 0 0 1 6.978012 6.978012v56.242777a7.024532 7.024532 0 0 1-6.978012 6.978012z m-93.644921-13.956024h86.527348v-42.286753H269.072142zM309.591132 278.608759H262.09413a6.978012 6.978012 0 0 1-6.978012-6.978012V218.970016a6.978012 6.978012 0 0 1 6.978012-6.978012h47.497002a6.978012 6.978012 0 0 1 6.978012 6.978012v52.660731a6.978012 6.978012 0 0 1-6.978012 6.978012z m-40.51899-13.956024h33.540978v-38.704707h-33.540978zM391.606033 278.608759H344.248592a6.978012 6.978012 0 0 1-6.978012-6.978012v-30.005452a6.978012 6.978012 0 0 1 6.978012-6.978012h47.357441a6.978012 6.978012 0 0 1 6.978012 6.978012v30.005452a6.978012 6.978012 0 0 1-6.978012 6.978012z m-40.51899-13.956024h33.540978v-16.049428h-33.540978zM473.620934 278.608759H426.123932a6.978012 6.978012 0 0 1-6.978012-6.978012v-30.005452a6.978012 6.978012 0 0 1 6.978012-6.978012h47.497002a6.978012 6.978012 0 0 1 6.978012 6.978012v30.005452a6.978012 6.978012 0 0 1-6.978012 6.978012z m-40.51899-13.956024h33.540978v-16.049428H433.101944zM385.744503 876.298746v1.814283a3.395966 3.395966 0 0 1-0.372161 1.209522 1.814283 1.814283 0 0 1-0.604761 0.697802 1.581683 1.581683 0 0 1-0.790841 0.2326h-19.910594v61.173905a1.395602 1.395602 0 0 1-0.232601 0.744321 1.488643 1.488643 0 0 1-0.790841 0.511721 6.698892 6.698892 0 0 1-1.442122 0.325641 14.607305 14.607305 0 0 1-2.232964 0 15.025986 15.025986 0 0 1-2.232964 0 7.257132 7.257132 0 0 1-1.488643-0.325641 1.349082 1.349082 0 0 1-0.744321-0.511721 1.395602 1.395602 0 0 1-0.2326-0.744321v-61.173905H334.944576a1.721243 1.721243 0 0 1-0.790842-0.2326 1.442122 1.442122 0 0 1-0.558241-0.697802 3.442486 3.442486 0 0 1-0.32564-1.209522 11.86262 11.86262 0 0 1 0-3.628566 4.093767 4.093767 0 0 1 0.32564-1.256042 1.395602 1.395602 0 0 1 0.558241-0.744321 1.628203 1.628203 0 0 1 0.790842 0h48.939124a1.535163 1.535163 0 0 1 0.790841 0 1.674723 1.674723 0 0 1 0.604761 0.744321 4.000727 4.000727 0 0 1 0.372161 1.256042c0.04652 0.511721 0.09304 1.116482 0.09304 1.814283zM435.195348 938.961294v1.721243a4.093767 4.093767 0 0 1-0.418681 1.209522 1.814283 1.814283 0 0 1-0.604761 0.697801 1.581683 1.581683 0 0 1-0.790841 0h-33.959658a3.907687 3.907687 0 0 1-2.372525-0.837361 3.535526 3.535526 0 0 1-1.116481-2.977285v-62.662548a3.489006 3.489006 0 0 1 1.116481-2.977285 3.907687 3.907687 0 0 1 2.372525-0.837362h33.494457a1.535163 1.535163 0 0 1 0.790841 0 1.395602 1.395602 0 0 1 0.558241 0.744322 5.349809 5.349809 0 0 1 0.372161 1.209522 10.420498 10.420498 0 0 1 0 1.814283 9.862257 9.862257 0 0 1 0 1.721243 5.349809 5.349809 0 0 1-0.372161 1.209522 1.535163 1.535163 0 0 1-0.558241 0.651281 1.209522 1.209522 0 0 1-0.790841 0.2326h-27.586407v22.143558h23.6322a1.442122 1.442122 0 0 1 0.790842 0.232601 2.186444 2.186444 0 0 1 0.604761 0.697801 3.395966 3.395966 0 0 1 0.37216 1.209522v3.489006a3.116845 3.116845 0 0 1-0.37216 1.116482 1.395602 1.395602 0 0 1-0.604761 0.651281 2.000363 2.000363 0 0 1-0.790842 0h-23.6322V935.053607h27.912048a1.581683 1.581683 0 0 1 0.790841 0 1.814283 1.814283 0 0 1 0.604761 0.697801 3.302926 3.302926 0 0 1 0.418681 1.209522 17.863711 17.863711 0 0 1 0.13956 2.000364zM487.251317 923.051426a20.329275 20.329275 0 0 1-1.814283 8.792296 19.166273 19.166273 0 0 1-5.070688 6.605851 23.26004 23.26004 0 0 1-7.629293 4.047247 34.7505 34.7505 0 0 1-16.049428 0.744321 36.099582 36.099582 0 0 1-5.396329-1.442122 29.400691 29.400691 0 0 1-3.954207-1.814283 10.839179 10.839179 0 0 1-2.232964-1.581683 3.675086 3.675086 0 0 1-0.930402-1.674723 8.327094 8.327094 0 0 1-0.32564-2.698165 11.257859 11.257859 0 0 1 0-1.953843 3.116845 3.116845 0 0 1 0.32564-1.302562 1.721243 1.721243 0 0 1 0.511721-0.697801 2.000363 2.000363 0 0 1 0.790842 0 4.652008 4.652008 0 0 1 2.139923 0.930401 36.099582 36.099582 0 0 0 3.582046 2.046884 34.79702 34.79702 0 0 0 5.25677 2.000363 23.49264 23.49264 0 0 0 7.117572 0.976922 17.770671 17.770671 0 0 0 5.582409-0.837362 13.490823 13.490823 0 0 0 4.372888-2.279484 10.327458 10.327458 0 0 0 2.791205-3.675086 12.188261 12.188261 0 0 0 0.976921-4.977648 9.304016 9.304016 0 0 0-1.349082-5.117209 13.956024 13.956024 0 0 0-3.628566-3.768127 30.889333 30.889333 0 0 0-5.070689-2.930765l-5.86153-2.698164a59.033981 59.033981 0 0 1-5.86153-3.116846 26.097765 26.097765 0 0 1-5.070689-3.954207 17.35199 17.35199 0 0 1-3.582046-5.396329 17.72415 17.72415 0 0 1-1.395602-7.350172 18.608032 18.608032 0 0 1 1.581682-7.908414 16.654189 16.654189 0 0 1 4.652008-5.81501 19.864074 19.864074 0 0 1 6.838452-3.535526 27.912048 27.912048 0 0 1 8.513175-1.256042 27.260767 27.260767 0 0 1 4.652008 0.41868 31.308014 31.308014 0 0 1 4.652008 1.116482 21.399237 21.399237 0 0 1 3.721606 1.488643 8.327094 8.327094 0 0 1 2.139924 1.395602 3.070325 3.070325 0 0 1 0.697801 0.790842 7.536253 7.536253 0 0 1 0.279121 0.790841v4.512448a4.652008 4.652008 0 0 1-0.279121 1.302562 1.209522 1.209522 0 0 1-0.465201 0.744321 0.930402 0.930402 0 0 1-0.651281 0.279121 4.652008 4.652008 0 0 1-1.907323-0.790842c-0.837361-0.511721-1.860803-1.069962-3.116846-1.721243a30.610213 30.610213 0 0 0-4.372887-1.721242 19.771034 19.771034 0 0 0-5.72197-0.790842 15.351626 15.351626 0 0 0-5.117209 0.790842 10.001817 10.001817 0 0 0-3.582046 2.093403 7.954934 7.954934 0 0 0-2.139924 3.116845 10.467018 10.467018 0 0 0-0.697801 3.814647 9.304016 9.304016 0 0 0 1.349083 5.070689 15.398146 15.398146 0 0 0 3.628566 3.768126 30.098492 30.098492 0 0 0 5.163729 2.977285l5.86153 2.744685c2.000363 0.930402 3.954207 1.953843 5.90805 3.070325a26.888606 26.888606 0 0 1 5.163729 3.907687 18.608032 18.608032 0 0 1 3.628566 5.349809 17.49155 17.49155 0 0 1 1.395602 7.117572zM544.284935 876.298746v1.814283a3.395966 3.395966 0 0 1-0.37216 1.209522 1.488643 1.488643 0 0 1-0.604761 0.697802 1.442122 1.442122 0 0 1-0.790842 0.2326h-20.096674v61.173905a1.395602 1.395602 0 0 1 0 0.744321 1.349082 1.349082 0 0 1-0.744321 0.511721 7.489733 7.489733 0 0 1-1.442123 0.325641 15.258586 15.258586 0 0 1-2.279484 0 15.025986 15.025986 0 0 1-2.232964 0 8.047974 8.047974 0 0 1-1.488642-0.325641 1.535163 1.535163 0 0 1-0.744321-0.511721 1.395602 1.395602 0 0 1 0-0.744321v-61.173905H493.112848a1.442122 1.442122 0 0 1-0.790842-0.2326 1.814283 1.814283 0 0 1-0.604761-0.697802 4.884608 4.884608 0 0 1-0.32564-1.209522 11.86262 11.86262 0 0 1 0-3.628566 6.09413 6.09413 0 0 1 0.32564-1.256042 1.674723 1.674723 0 0 1 0.604761-0.744321 1.442122 1.442122 0 0 1 0.790842 0h49.032164a1.395602 1.395602 0 0 1 1.395602 0.930401 4.000727 4.000727 0 0 1 0.372161 1.256042c0.372161 0.325641 0.372161 0.930402 0.37216 1.628203zM563.683809 941.426858a1.395602 1.395602 0 0 1 0 0.744321 1.349082 1.349082 0 0 1-0.744321 0.511721 7.489733 7.489733 0 0 1-1.442123 0.325641 15.258586 15.258586 0 0 1-2.279484 0 15.025986 15.025986 0 0 1-2.232964 0 8.047974 8.047974 0 0 1-1.488642-0.325641 1.535163 1.535163 0 0 1-0.744322-0.511721 1.395602 1.395602 0 0 1 0-0.744321v-67.733236a1.069962 1.069962 0 0 1 0.279121-0.744322 1.256042 1.256042 0 0 1 0.790841-0.51172 7.675813 7.675813 0 0 1 1.488643-0.372161h4.419407a7.117572 7.117572 0 0 1 1.442123 0.372161 1.116482 1.116482 0 0 1 0.744321 0.51172 1.302562 1.302562 0 0 1 0 0.744322zM635.743413 938.961294a3.907687 3.907687 0 0 1-0.372161 1.860803 3.675086 3.675086 0 0 1-0.930402 1.256042 3.721606 3.721606 0 0 1-1.349082 0.697801 5.210249 5.210249 0 0 1-1.442122 0.232601h-3.116846a10.373978 10.373978 0 0 1-2.558604-0.325641 5.58241 5.58241 0 0 1-2.093404-1.069962 11.53698 11.53698 0 0 1-1.953843-2.186443 22.190078 22.190078 0 0 1-2.093404-3.489006l-21.538797-40.100309c-1.116482-2.093404-2.279484-4.233327-3.395966-6.512811s-2.232964-4.652008-3.209885-6.652372V941.426858a1.395602 1.395602 0 0 1 0 0.697801 1.721243 1.721243 0 0 1-0.790841 0.558241 7.489733 7.489733 0 0 1-1.442123 0.325641 18.608032 18.608032 0 0 1-4.652008 0 7.768853 7.768853 0 0 1-1.395602-0.325641 1.581683 1.581683 0 0 1-0.744322-0.558241 1.395602 1.395602 0 0 1 0-0.697801v-65.128112a3.535526 3.535526 0 0 1 1.256043-3.070325 4.140287 4.140287 0 0 1 2.698164-0.930402h4.652008a15.119026 15.119026 0 0 1 2.744685 0.232601 6.280211 6.280211 0 0 1 1.953843 0.930401 7.396693 7.396693 0 0 1 1.674723 1.721243 20.561875 20.561875 0 0 1 1.721243 2.837725l16.561149 30.935853 2.930765 5.53589 2.744684 5.303289 2.605125 5.163729c0.883882 1.721243 1.721243 3.395966 2.558604 5.117209v-56.196257a1.116482 1.116482 0 0 1 0-0.744321 2.046884 2.046884 0 0 1 0.744322-0.558241 7.117572 7.117572 0 0 1 1.442122-0.372161h4.512448a6.373251 6.373251 0 0 1 1.442122 0.372161 2.046884 2.046884 0 0 1 0.744322 0.558241 1.116482 1.116482 0 0 1 0 0.744321zM707.477376 881.881156a10.699618 10.699618 0 0 1 0 1.814283 6.605851 6.605851 0 0 1-0.325641 1.302562 1.395602 1.395602 0 0 1-0.558241 0.744321 1.163002 1.163002 0 0 1-0.697801 0 5.163729 5.163729 0 0 1-2.186443-1.069961 40.89115 40.89115 0 0 0-4.093768-2.279484 36.564783 36.564783 0 0 0-6.14065-2.279484 30.145012 30.145012 0 0 0-8.466655-1.023442 25.353444 25.353444 0 0 0-10.467018 2.093404 23.49264 23.49264 0 0 0-7.861893 5.90805 26.795566 26.795566 0 0 0-4.931129 8.931855 36.378703 36.378703 0 0 0-1.721243 11.257859 35.215701 35.215701 0 0 0 1.907324 11.955661 25.167363 25.167363 0 0 0 5.210249 8.838815 20.794476 20.794476 0 0 0 7.908413 5.442849 26.609486 26.609486 0 0 0 10.141378 1.860804 26.981646 26.981646 0 0 0 6.605851-0.790842 23.26004 23.26004 0 0 0 6.233691-2.372524V911.793567h-16.328548a1.442122 1.442122 0 0 1-1.395603-0.930401 6.605851 6.605851 0 0 1-0.465201-2.884245v-1.814284a3.395966 3.395966 0 0 1 0.372161-1.163002 1.442122 1.442122 0 0 1 0.558241-0.697801 1.628203 1.628203 0 0 1 0.837362 0h22.376158a3.489006 3.489006 0 0 1 1.209522 0 3.349446 3.349446 0 0 1 1.116482 0.651281 2.837725 2.837725 0 0 1 0.744321 1.209522 4.931128 4.931128 0 0 1 0.279121 1.721243V935.053607a5.81501 5.81501 0 0 1-0.511721 2.465564 4.186807 4.186807 0 0 1-2.046884 1.814283 43.821915 43.821915 0 0 1-4.093767 1.721243 47.403961 47.403961 0 0 1-5.163729 1.581683 54.800654 54.800654 0 0 1-5.396329 0.976922 43.031074 43.031074 0 0 1-5.396329 0.32564 40.146829 40.146829 0 0 1-14.653825-2.512084 29.447211 29.447211 0 0 1-10.839179-7.257132 30.749773 30.749773 0 0 1-6.791932-11.21134 42.751953 42.751953 0 0 1-2.372524-14.607305 43.821915 43.821915 0 0 1 2.558605-15.212066 33.029257 33.029257 0 0 1 7.117572-11.63002 32.564056 32.564056 0 0 1 11.071779-7.443213 37.216064 37.216064 0 0 1 14.328185-2.651644 39.169907 39.169907 0 0 1 7.582773 0.744321 50.846447 50.846447 0 0 1 6.28021 1.628203 25.958205 25.958205 0 0 1 4.652008 2.093403 13.956024 13.956024 0 0 1 2.558605 1.814284 3.582046 3.582046 0 0 1 1.023442 1.628202 13.118663 13.118663 0 0 1 0.2326 2.558605z" fill="#363636" p-id="1209"></path></svg>